<?xml version="1.0" standalone="no"?>
<!DOCTYPE svg PUBLIC "-//W3C//DTD SVG 20010904//EN"
 "http://www.w3.org/TR/2001/REC-SVG-20010904/DTD/svg10.dtd">
<svg version="1.0" xmlns="http://www.w3.org/2000/svg"
 width="300.000000pt" height="300.000000pt" viewBox="0 0 300.000000 300.000000"
 preserveAspectRatio="xMidYMid meet">
<metadata>
Created by potrace 1.10, written by Peter Selinger 2001-2011
</metadata>
<g transform="translate(0.000000,300.000000) scale(0.100000,-0.100000)"
fill="#000000" stroke="none">
<path d="M1536 1903 c-3 -3 -6 -14 -6 -23 0 -13 -12 -19 -48 -24 -138 -18
-273 -152 -289 -287 -5 -43 -9 -49 -29 -49 -15 0 -24 -6 -24 -15 0 -9 9 -15
24 -15 20 0 24 -6 29 -45 19 -135 152 -266 288 -282 43 -5 49 -9 49 -29 0 -30
18 -32 22 -2 2 17 13 24 58 33 72 14 112 36 101 54 -7 11 -13 11 -32 1 -13 -7
-45 -19 -72 -26 -57 -15 -58 -14 -54 71 2 53 4 60 26 65 14 3 27 12 29 19 4
11 -3 13 -26 8 l-31 -6 2 69 c1 39 5 70 10 70 4 0 36 0 72 0 53 0 63 -3 59
-15 -4 -9 0 -15 10 -15 9 0 16 7 16 15 0 12 14 15 70 15 79 0 79 -1 55 -71
-12 -34 -13 -44 -3 -51 23 -14 42 50 42 142 0 71 -4 95 -26 142 -51 110 -152
190 -260 204 -41 6 -48 10 -43 24 6 19 -7 35 -19 23z m-6 -142 l0 -68 -31 -7
c-68 -13 -119 -66 -143 -148 -4 -15 -17 -18 -71 -18 l-65 0 0 33 c0 73 84 196
162 238 32 17 98 38 126 38 21 1 22 -3 22 -68z m143 43 c87 -44 144 -112 171
-204 24 -81 25 -80 -54 -80 -66 0 -70 1 -70 23 -1 58 -71 128 -152 151 -15 4
-18 17 -18 72 l0 67 45 -6 c25 -4 60 -14 78 -23z m-143 -214 l0 -70 -75 0
c-41 0 -75 2 -75 5 0 45 84 135 125 135 24 0 25 -2 25 -70z m110 38 c26 -21
38 -41 53 -90 5 -14 -5 -17 -73 -20 -47 -2 -76 1 -72 6 3 6 5 39 4 74 l-2 65
31 -7 c17 -3 43 -16 59 -28z m-280 -154 c0 -28 39 -92 70 -114 16 -12 46 -24
65 -27 l35 -6 0 -72 0 -72 -47 8 c-127 24 -230 121 -258 244 l-13 54 67 3 c76
3 81 2 81 -18z m170 -55 c0 -41 -4 -69 -10 -69 -32 0 -92 44 -115 85 -15 24
-24 48 -22 52 3 4 37 7 76 5 l71 -4 0 -69z"/>
<path d="M1626 1438 c-9 -12 -16 -25 -16 -29 0 -12 201 -274 211 -274 5 0 10
3 12 6 2 5 -78 110 -165 218 -80 97 -31 59 131 -103 120 -120 171 -164 177
-155 5 9 -42 61 -157 172 -90 87 -157 155 -148 150 8 -4 70 -47 136 -95 67
-49 124 -88 128 -88 4 0 5 6 3 14 -3 14 -272 206 -289 206 -4 0 -15 -10 -23
-22z"/>
</g>
</svg>
